<svg height="526" width="720" xmlns="http://www.w3.org/2000/svg">
<rect height="526" fill="#555" width="720"></rect>
<text fill="#7f7" font-family="Courier New" font-size="12" xml:space="preserve">
<tspan x="10" y="26">11 megabytes installed</tspan>
<tspan x="10" y="42"></tspan>
<tspan x="10" y="58">node_modules</tspan>
<tspan x="10" y="74">└─┬ chromecasts@1.9.0 </tspan>
<tspan x="10" y="90">  ├─┬ castv2-client@1.2.0 </tspan>
<tspan x="10" y="106">  │ └─┬ castv2@0.1.9 </tspan>
<tspan x="10" y="122">  │   └─┬ protobufjs@3.8.2 </tspan>
<tspan x="10" y="138">  │     ├─┬ ascli@0.3.0 </tspan>
<tspan x="10" y="154">  │     │ ├── colour@0.7.1 </tspan>
<tspan x="10" y="170">  │     │ └── optjs@3.2.2 </tspan>
<tspan x="10" y="186">  │     └─┬ bytebuffer@3.5.5 </tspan>
<tspan x="10" y="202">  │       ├── bufferview@1.0.1 </tspan>
<tspan x="10" y="218">  │       └── long@2.4.0 </tspan>
<tspan x="10" y="234">  ├─┬ debug@2.6.3 </tspan>
<tspan x="10" y="250">  │ └── ms@0.7.2 </tspan>
<tspan x="10" y="266">  ├── mime@1.3.4 </tspan>
<tspan x="10" y="282">  ├─┬ multicast-dns@6.1.1 </tspan>
<tspan x="10" y="298">  │ └─┬ dns-packet@1.1.1 </tspan>
<tspan x="10" y="314">  │   └── safe-buffer@5.0.1 </tspan>
<tspan x="10" y="330">  ├─┬ node-ssdp@2.9.1 </tspan>
<tspan x="10" y="346">  │ └── ip@1.1.5 </tspan>
<tspan x="10" y="362">  ├─┬ simple-get@2.5.1 </tspan>
<tspan x="10" y="378">  │ ├─┬ once@1.4.0 </tspan>
<tspan x="10" y="394">  │ │ └── wrappy@1.0.2 </tspan>
<tspan x="10" y="410">  │ ├── simple-concat@1.0.0 </tspan>
<tspan x="10" y="426">  │ └── unzip-response@2.0.1 </tspan>
<tspan x="10" y="442">  ├── thunky@0.1.0 </tspan>
<tspan x="10" y="458">  └─┬ xml2js@0.4.17 </tspan>
<tspan x="10" y="474">    ├── sax@1.2.2 </tspan>
<tspan x="10" y="490">    └─┬ xmlbuilder@4.2.1 </tspan>
<tspan x="10" y="506">      └── lodash@4.17.4</tspan>
</text>
</svg>
